<svg id="Calque_1" data-name="Calque 1" xmlns="http://www.w3.org/2000/svg" viewBox="0 0 227.33 279"><defs><style>.cls-1{fill:#f9e606;}.cls-2{fill:#53efca;}</style></defs><circle class="cls-1" cx="78.37" cy="12.95" r="10.01"/><circle class="cls-1" cx="87.54" cy="26.72" r="8.14"/><circle class="cls-1" cx="74.42" cy="34.3" r="7.3"/><circle class="cls-1" cx="94.54" cy="48.92" r="7.2"/><circle class="cls-1" cx="81.1" cy="53.61" r="8.14"/><circle class="cls-1" cx="129.05" cy="50.78" r="8.03" transform="translate(58.25 170.03) rotate(-80.78)"/><circle class="cls-1" cx="137.34" cy="73.48" r="9.28"/><circle class="cls-1" cx="119" cy="68.39" r="7.51" transform="translate(10.27 152.16) rotate(-67.5)"/><circle class="cls-1" cx="134.61" cy="93.74" r="6.78"/><circle class="cls-1" cx="122.72" cy="92.86" r="6.99"/><circle class="cls-1" cx="198.86" cy="112.14" r="10.64"/><circle class="cls-1" cx="201.32" cy="155.03" r="8.29"/><circle class="cls-1" cx="185.97" cy="150.74" r="6.73"/><circle class="cls-1" cx="204.2" cy="130.4" r="10.01"/><circle class="cls-1" cx="189.06" cy="128.16" r="7.05"/><circle class="cls-1" cx="168.7" cy="193.45" r="6.26"/><circle class="cls-1" cx="147.63" cy="180.74" r="7.04"/><circle class="cls-1" cx="128.54" cy="167.37" r="7.2"/><circle class="cls-1" cx="108.93" cy="153.3" r="8.92"/><circle class="cls-1" cx="112.14" cy="180.17" r="7.2"/><circle class="cls-1" cx="133.7" cy="192.78" r="6.88"/><circle class="cls-1" cx="152.71" cy="202.34" r="7.98"/><circle class="cls-1" cx="84.63" cy="83.37" r="8.29"/><circle class="cls-1" cx="81.89" cy="101.15" r="7.51"/><circle class="cls-1" cx="57.16" cy="98.35" r="9.54"/><circle class="cls-1" cx="36.95" cy="93.83" r="7.04"/><circle class="cls-1" cx="43.67" cy="79.16" r="7.2"/><circle class="cls-1" cx="65.56" cy="80.76" r="7.51"/><circle class="cls-1" cx="19.31" cy="86.84" r="8.6"/><path class="cls-2" d="M30.67,85c27.72-.44,55.85,2.18,80,15.71-2.13-2.58-4.17-5.24-6.07-8C90.11,71.52,84,47.92,78,23.39c-.73-3,4-3.52,4.7-.59,6,24.36,12.06,47.57,26.73,68.47,6.27,8.94,14,16.08,22,23.28a156.46,156.46,0,0,1-6.65-56.84c.19-3,4.88-2.35,4.68.68a150.85,150.85,0,0,0,9.15,62.6c18.7,17,36.42,35,50,56.2a103.09,103.09,0,0,1,9.25-58.13c1.31-2.74,5.66-.86,4.34,1.91a98.88,98.88,0,0,0-7.31,64.68c.15.67,3.28,8.3,4.88,11.77C210,219.57,214.44,243.47,214,267.81c-.06,3-4.75,2.33-4.69-.68a152.07,152.07,0,0,0-2.26-29c-14.9-41.61-71.63-40.52-96-74.49-1.78-2.48,2-5.32,3.79-2.83C136,190.45,181.25,193.22,203,221.11c-7.58-25.81-21.72-49.35-40.41-70-7.69-8.49-59.1-69.07-131.33-61.42C28.24,89.75,27.63,85.05,30.67,85Z"/></svg>